<?xml version="1.0" standalone="no"?>
<!DOCTYPE svg PUBLIC "-//W3C//DTD SVG 20010904//EN"
 "http://www.w3.org/TR/2001/REC-SVG-20010904/DTD/svg10.dtd">
<svg version="1.0" xmlns="http://www.w3.org/2000/svg"
 width="256.000000pt" height="256.000000pt" viewBox="0 0 256.000000 256.000000"
 preserveAspectRatio="xMidYMid meet">

<g transform="translate(0.000000,256.000000) scale(0.100000,-0.100000)"
fill="#000000" stroke="none">
<path d="M1432 2540 c-12 -11 -25 -32 -28 -45 l-6 -25 -41 35 c-110 95 -222
-11 -134 -127 46 -60 132 -118 175 -118 81 0 167 146 142 239 -16 61 -66 80
-108 41z m66 -54 c10 -81 -43 -166 -102 -166 -38 0 -110 43 -149 89 -30 36
-32 44 -17 72 19 34 74 25 124 -21 55 -51 72 -51 81 -2 4 20 12 43 17 50 18
21 43 9 46 -22z"/>
<path d="M1169 2186 c-2 -2 -71 -9 -152 -15 -210 -16 -302 -50 -381 -142 -49
-58 -72 -138 -91 -321 -9 -84 -20 -183 -25 -220 -10 -67 -8 -82 13 -126 10
-20 7 -26 -19 -47 -33 -28 -45 -30 -62 -13 -9 9 -7 17 11 36 19 20 22 34 20
88 -4 118 -25 132 -155 104 -51 -11 -99 -27 -108 -35 -22 -23 -19 -97 6 -132
27 -37 80 -63 129 -63 31 0 44 -6 61 -27 l21 -26 -31 -60 c-26 -51 -31 -71
-31 -133 0 -60 4 -78 23 -104 23 -30 23 -32 6 -51 -9 -10 -19 -40 -21 -66 -6
-65 25 -112 87 -133 25 -8 46 -15 48 -16 7 -4 -27 -164 -41 -191 -30 -57 -63
-83 -106 -83 -22 0 -52 -5 -67 -10 -33 -13 -137 -119 -176 -179 -93 -147 56
-284 203 -187 47 32 111 125 129 190 15 55 8 120 -15 146 -17 18 -16 21 14 51
43 43 69 96 77 160 9 71 20 99 39 99 12 0 15 -13 15 -58 0 -97 44 -132 165
-132 58 0 66 -2 63 -18 -3 -14 -12 -16 -49 -14 -63 4 -91 -21 -158 -144 -67
-123 -74 -147 -56 -190 16 -39 81 -76 137 -78 51 -1 82 31 131 133 44 95 53
164 25 215 -14 27 -14 33 1 63 9 18 22 33 29 33 32 0 81 34 96 65 9 19 16 59
16 94 l0 61 50 2 c28 0 55 1 61 2 7 1 12 -21 13 -54 1 -30 8 -89 15 -131 16
-86 12 -109 -21 -109 -38 0 -84 -36 -107 -83 -27 -56 -38 -169 -22 -220 21
-62 89 -96 146 -73 61 26 85 74 104 208 12 86 0 134 -39 156 -28 16 -28 16
-35 155 -5 98 -4 142 4 150 15 15 227 15 242 0 8 -8 9 -52 4 -150 -7 -139 -7
-139 -35 -155 -39 -22 -51 -70 -39 -156 19 -134 43 -182 104 -208 57 -23 125
11 146 73 16 51 5 164 -22 220 -23 47 -69 83 -107 83 -33 0 -37 23 -21 109 7
42 14 101 15 131 1 33 6 55 13 54 6 -1 34 -2 61 -2 l50 -2 0 -61 c0 -35 7 -75
16 -94 15 -31 64 -65 96 -65 7 0 20 -15 29 -33 15 -30 15 -36 1 -63 -28 -51
-19 -120 25 -215 49 -102 80 -134 131 -133 56 2 121 39 137 78 18 43 11 67
-56 190 -67 123 -95 148 -158 144 -37 -2 -46 0 -49 15 -3 15 5 17 63 17 121 0
165 35 165 132 0 45 3 58 15 58 19 0 30 -28 39 -99 8 -64 34 -117 77 -160 30
-30 31 -33 14 -51 -23 -26 -30 -91 -15 -146 18 -65 82 -158 129 -190 107 -70
231 -19 231 95 0 52 -18 87 -88 168 -73 84 -106 105 -175 112 -58 6 -61 8 -93
54 -30 43 -41 79 -59 187 -6 35 -5 35 42 50 65 21 97 66 90 133 -2 26 -12 56
-21 66 -17 19 -17 21 6 51 19 26 23 44 23 104 0 62 -5 82 -31 133 l-31 60 21
26 c17 21 30 27 61 27 49 0 102 26 129 63 25 35 28 109 6 132 -9 8 -57 24
-108 35 -130 28 -151 14 -155 -104 -2 -54 1 -68 20 -88 18 -19 20 -27 11 -36
-17 -17 -29 -15 -62 13 -28 23 -29 25 -16 51 19 34 18 59 -9 294 -26 232 -46
309 -97 369 -72 83 -145 115 -333 141 -120 17 -409 28 -422 16z m433 -70 c204
-37 308 -113 343 -248 15 -56 35 -287 35 -399 0 -46 -4 -70 -15 -79 -18 -15
-22 1 -30 135 -7 116 -46 322 -74 387 -23 55 -73 105 -125 128 -99 42 -352 60
-581 40 -250 -21 -365 -62 -438 -156 -59 -78 -77 -151 -87 -358 -5 -98 -11
-181 -14 -184 -3 -2 -12 1 -21 8 -18 15 -19 85 -4 285 17 231 44 296 149 364
114 74 281 102 575 96 122 -2 234 -10 287 -19z m-340 -91 c7 -32 3 -35 -49
-35 -82 0 -117 -69 -64 -123 27 -28 91 -38 168 -27 54 7 73 15 91 35 46 54 19
111 -58 121 -45 6 -50 9 -50 32 l0 25 113 -7 c336 -21 400 -66 452 -313 17
-84 39 -338 30 -353 -3 -6 -17 -10 -31 -10 -21 0 -24 4 -24 39 0 57 -15 89
-54 112 -47 28 -53 59 -19 110 40 61 44 146 10 198 -31 47 -80 71 -145 71
-115 0 -199 -122 -158 -230 30 -77 30 -89 6 -116 -13 -13 -29 -24 -36 -24 -28
0 -65 -45 -71 -87 -6 -48 -16 -53 -114 -53 l-66 0 -6 47 c-5 50 -40 93 -75 93
-10 0 -25 13 -35 29 -16 27 -16 29 5 47 11 11 30 39 40 63 30 66 18 121 -36
176 -69 69 -158 70 -225 1 -52 -54 -59 -133 -19 -222 12 -26 10 -29 -51 -85
-62 -56 -64 -60 -69 -113 l-4 -56 -40 0 c-33 0 -38 3 -34 18 14 47 25 116 31
207 18 278 90 384 287 430 80 18 114 21 214 23 79 2 82 1 86 -23z m112 -81
c20 -20 5 -52 -27 -58 -99 -20 -169 -12 -181 21 -12 29 13 42 87 46 40 1 80 4
89 5 9 1 24 -5 32 -14z m334 -100 c60 -40 61 -121 1 -202 -30 -41 -31 -52 -14
-94 6 -16 -1 -18 -84 -18 l-92 0 21 28 21 29 -27 65 c-30 74 -28 117 8 163 42
54 110 66 166 29z m-657 -20 c56 -53 48 -129 -19 -184 l-36 -29 17 -36 c9 -20
17 -38 17 -40 0 -3 -41 -5 -92 -5 l-92 0 31 33 32 32 -24 55 c-28 64 -31 109
-10 150 33 65 121 77 176 24z m-637 -350 c10 -9 16 -33 16 -59 0 -54 -22 -70
-84 -62 -48 7 -96 53 -96 92 0 19 7 26 28 31 15 3 32 7 37 9 28 9 85 3 99 -11z
m651 7 l60 -6 3 -41 3 -41 -137 -6 c-75 -4 -158 -7 -184 -7 l-46 0 4 34 c2 19
13 44 23 55 18 19 31 21 117 20 53 -1 124 -4 157 -8z m704 -12 c10 -11 21 -36
23 -55 l4 -34 -111 1 c-60 1 -141 4 -180 8 l-70 6 0 40 0 40 55 6 c30 3 101 6
157 7 92 2 104 0 122 -19z m524 5 c50 -19 -11 -112 -79 -121 -62 -8 -84 8 -84
62 0 64 19 79 90 72 31 -4 64 -9 73 -13z m-527 -148 c153 -10 186 -16 215 -34
83 -51 138 -141 139 -225 0 -65 -21 -102 -66 -117 -48 -16 -393 -18 -552 -4
-90 9 -194 9 -395 1 -332 -13 -556 -12 -603 3 -89 30 -84 191 9 288 66 68 87
75 262 88 222 15 773 16 991 0z m342 -450 c23 -22 19 -74 -7 -99 -20 -21 -30
-22 -164 -21 -78 1 -374 1 -657 1 -283 0 -579 0 -657 -1 -134 -1 -144 0 -164
21 -26 26 -29 75 -6 100 15 17 63 18 828 16 704 -2 815 -4 827 -17z m-1150
-198 c6 -50 -17 -108 -51 -128 -40 -25 -169 -28 -222 -6 -42 18 -55 42 -55
105 0 49 1 50 33 54 17 2 91 4 162 3 l130 -1 3 -27z m974 8 c13 -19 9 -91 -7
-113 -22 -32 -80 -47 -173 -46 -72 0 -86 3 -107 23 -31 29 -39 68 -25 119 l10
40 148 -6 c90 -4 150 -10 154 -17z m-1146 -299 c37 -32 37 -87 0 -166 l-29
-61 -36 23 c-20 12 -55 24 -78 27 l-42 5 49 85 c67 116 87 129 136 87z m1058
10 c10 -7 39 -51 66 -97 l49 -85 -42 -5 c-23 -3 -58 -15 -78 -27 l-36 -23 -29
61 c-37 79 -37 134 0 166 31 26 45 28 70 10z m-679 -29 c27 -21 27 -23 21 -97
-4 -41 -9 -78 -11 -82 -3 -3 -22 -2 -44 4 -29 8 -50 8 -77 -1 l-37 -11 7 61
c7 69 31 117 67 135 33 17 42 16 74 -9z m323 -1 c25 -20 42 -66 48 -126 l7
-60 -37 11 c-27 9 -48 9 -77 1 -22 -6 -41 -7 -44 -4 -2 4 -7 41 -11 82 -6 75
-6 76 22 98 29 23 63 22 92 -2z m-1093 -22 c16 -15 25 -36 25 -54 0 -33 -32
-126 -54 -156 -13 -18 -15 -18 -40 12 -32 38 -75 56 -121 51 -19 -2 -35 -1
-35 3 0 25 97 129 145 153 41 21 52 20 80 -9z m1838 16 c45 -17 157 -132 157
-160 0 -4 -16 -5 -35 -3 -46 5 -89 -13 -121 -51 -25 -30 -27 -30 -40 -12 -22
30 -54 123 -54 156 0 18 9 39 25 54 27 28 33 29 68 16z m-1532 -217 c36 -34
28 -48 -23 -41 -42 6 -88 40 -88 65 0 25 77 8 111 -24z m1269 23 c0 -36 -86
-79 -126 -63 -15 6 -14 9 7 32 13 15 33 30 44 34 32 14 75 12 75 -3z m-1690
-27 c46 -46 11 -98 -57 -85 -44 8 -73 37 -73 75 0 30 1 30 55 30 42 0 60 -5
75 -20z m854 7 c22 -16 12 -45 -21 -58 -26 -10 -50 -1 -73 27 -12 14 -12 18 5
30 24 17 66 18 89 1z m381 -1 c17 -12 17 -16 5 -30 -33 -40 -89 -40 -104 0
-14 37 59 59 99 30z m895 -16 c0 -38 -29 -67 -73 -75 -45 -9 -77 8 -77 40 0
43 33 65 95 65 54 0 55 0 55 -30z"/>
<path d="M580 1233 c-100 -52 -96 -200 7 -239 39 -15 44 -15 79 2 54 27 77 64
82 131 4 54 2 60 -26 86 -38 37 -94 45 -142 20z m113 -55 c21 -25 22 -48 3
-93 -33 -79 -131 -74 -151 8 -22 86 92 152 148 85z"/>
<path d="M1866 1235 c-42 -22 -55 -44 -56 -92 0 -77 35 -133 97 -154 65 -21
146 43 146 118 0 102 -104 173 -187 128z m93 -36 c86 -30 73 -169 -16 -169
-86 0 -127 139 -50 170 29 12 29 12 66 -1z"/>
<path d="M1264 1230 c-377 -5 -403 -6 -423 -24 -32 -29 -29 -95 7 -128 15 -15
40 -31 55 -37 15 -6 178 -16 361 -23 311 -11 337 -10 380 6 63 24 96 66 96
122 0 34 -6 51 -25 69 -13 14 -30 24 -37 23 -7 -2 -194 -5 -414 -8z m422 -66
c9 -35 -9 -70 -48 -90 -28 -15 -71 -16 -360 -15 -327 2 -364 5 -400 38 -21 19
-23 56 -5 71 14 12 129 16 554 20 l253 2 6 -26z"/>
</g>
</svg>
